<svg width="182" height="63" viewBox="0 0 182 63" fill="none" xmlns="http://www.w3.org/2000/svg">
<path d="M25.1527 20.7237C24.8864 19.8608 24.5188 19.0884 24.0501 18.4066C23.592 17.7141 23.038 17.1229 22.3881 16.6328C21.7489 16.1428 21.0139 15.7752 20.1829 15.5302C19.3519 15.2745 18.4464 15.1467 17.4663 15.1467C15.7085 15.1467 14.1424 15.5888 12.7681 16.473C11.3938 17.3572 10.3125 18.657 9.52415 20.3722C8.74645 22.0767 8.3576 24.1541 8.3576 26.6044C8.3576 29.076 8.74645 31.1694 9.52415 32.8846C10.3018 34.5998 11.3832 35.9048 12.7681 36.7997C14.1531 37.6839 15.7617 38.1261 17.5941 38.1261C19.256 38.1261 20.6942 37.8065 21.9087 37.1673C23.1339 36.5281 24.0767 35.6225 24.7372 34.4506C25.3977 33.2681 25.728 31.8832 25.728 30.2958L27.0703 30.5036H18.1854V25.8693H31.4648V29.8004C31.4648 32.6023 30.8683 35.0259 29.6751 37.0714C28.4819 39.1168 26.8413 40.6935 24.7532 41.8015C22.6651 42.8988 20.2681 43.4474 17.5621 43.4474C14.5472 43.4474 11.8999 42.771 9.62003 41.418C7.35085 40.0543 5.57706 38.1207 4.29865 35.6172C3.03089 33.103 2.39702 30.12 2.39702 26.6683C2.39702 24.0263 2.76989 21.6665 3.51562 19.5891C4.27202 17.5117 5.3267 15.7486 6.67969 14.2997C8.03267 12.8402 9.62003 11.7322 11.4418 10.9759C13.2635 10.2088 15.245 9.82528 17.3864 9.82528C19.1974 9.82528 20.886 10.0916 22.4521 10.6243C24.0181 11.1463 25.4084 11.892 26.6229 12.8615C27.848 13.831 28.8548 14.9815 29.6431 16.3132C30.4315 17.6449 30.9482 19.1151 31.1932 20.7237H25.1527ZM36.5227 43V10.2727H42.3075V22.5135H42.5472C42.8455 21.9169 43.2663 21.283 43.8096 20.6119C44.353 19.93 45.0881 19.3494 46.0149 18.87C46.9417 18.38 48.1243 18.1349 49.5625 18.1349C51.4588 18.1349 53.1687 18.6197 54.6921 19.5891C56.2262 20.5479 57.4407 21.9702 58.3356 23.8558C59.2411 25.7308 59.6939 28.032 59.6939 30.7592C59.6939 33.4545 59.2518 35.745 58.3675 37.6307C57.4833 39.5163 56.2795 40.9545 54.756 41.9453C53.2326 42.9361 51.5067 43.4315 49.5785 43.4315C48.1722 43.4315 47.0057 43.1971 46.0788 42.7283C45.152 42.2596 44.4062 41.695 43.8416 41.0344C43.2876 40.3633 42.8562 39.7294 42.5472 39.1328H42.2116V43H36.5227ZM42.1957 30.7273C42.1957 32.3146 42.4194 33.7049 42.8668 34.8981C43.3249 36.0913 43.9801 37.0234 44.8324 37.6946C45.6953 38.3551 46.7393 38.6854 47.9645 38.6854C49.2429 38.6854 50.3135 38.3445 51.1765 37.6626C52.0394 36.9702 52.6893 36.0273 53.126 34.8342C53.5735 33.6303 53.7972 32.2614 53.7972 30.7273C53.7972 29.2038 53.5788 27.8509 53.142 26.6683C52.7052 25.4858 52.0554 24.5589 51.1925 23.8878C50.3295 23.2166 49.2535 22.881 47.9645 22.881C46.7287 22.881 45.6793 23.206 44.8164 23.8558C43.9535 24.5057 43.2983 25.4165 42.8508 26.5884C42.414 27.7603 42.1957 29.1399 42.1957 30.7273ZM122.616 35.2976L122.6 28.3143H123.527L132.348 18.4545H139.108L128.257 30.5355H127.059L122.616 35.2976ZM117.343 43V10.2727H123.127V43H117.343ZM132.747 43L124.757 31.8299L128.657 27.755L139.667 43H132.747ZM146.147 52.2045C145.359 52.2045 144.629 52.1406 143.958 52.0128C143.297 51.8956 142.77 51.7571 142.376 51.5973L143.718 47.0909C144.56 47.3359 145.311 47.4531 145.971 47.4425C146.632 47.4318 147.212 47.2241 147.713 46.8192C148.224 46.4251 148.656 45.7646 149.007 44.8377L149.503 43.5114L140.602 18.4545H146.738L152.395 36.9915H152.651L158.324 18.4545H164.476L154.648 45.9723C154.19 47.272 153.583 48.3853 152.827 49.3121C152.07 50.2496 151.143 50.9634 150.046 51.4535C148.959 51.9542 147.66 52.2045 146.147 52.2045Z" fill="#00160A"/>
<path d="M74.6434 43.4794C72.2464 43.4794 70.169 42.9521 68.4112 41.8974C66.6534 40.8427 65.2897 39.3672 64.3203 37.4709C63.3615 35.5746 62.8821 33.3587 62.8821 30.8232C62.8821 28.2876 63.3615 26.0664 64.3203 24.1594C65.2897 22.2525 66.6534 20.7717 68.4112 19.717C70.169 18.6623 72.2464 18.1349 74.6434 18.1349C77.0404 18.1349 79.1179 18.6623 80.8757 19.717C82.6335 20.7717 83.9918 22.2525 84.9506 24.1594C85.9201 26.0664 86.4048 28.2876 86.4048 30.8232C86.4048 33.3587 85.9201 35.5746 84.9506 37.4709C83.9918 39.3672 82.6335 40.8427 80.8757 41.8974C79.1179 42.9521 77.0404 43.4794 74.6434 43.4794ZM74.6754 38.8452C75.9751 38.8452 77.0618 38.4883 77.9353 37.7745C78.8089 37.0501 79.4588 36.0806 79.8849 34.8661C80.3217 33.6516 80.5401 32.2987 80.5401 30.8072C80.5401 29.305 80.3217 27.9467 79.8849 26.7322C79.4588 25.5071 78.8089 24.5323 77.9353 23.8079C77.0618 23.0835 75.9751 22.7212 74.6754 22.7212C73.3437 22.7212 72.2358 23.0835 71.3515 23.8079C70.4779 24.5323 69.8228 25.5071 69.386 26.7322C68.9598 27.9467 68.7468 29.305 68.7468 30.8072C68.7468 32.2987 68.9598 33.6516 69.386 34.8661C69.8228 36.0806 70.4779 37.0501 71.3515 37.7745C72.2358 38.4883 73.3437 38.8452 74.6754 38.8452ZM101.346 43.4794C98.9493 43.4794 96.8719 42.9521 95.1141 41.8974C93.3563 40.8427 91.9927 39.3672 91.0232 37.4709C90.0644 35.5746 89.585 33.3587 89.585 30.8232C89.585 28.2876 90.0644 26.0664 91.0232 24.1594C91.9927 22.2525 93.3563 20.7717 95.1141 19.717C96.8719 18.6623 98.9493 18.1349 101.346 18.1349C103.743 18.1349 105.821 18.6623 107.579 19.717C109.336 20.7717 110.695 22.2525 111.654 24.1594C112.623 26.0664 113.108 28.2876 113.108 30.8232C113.108 33.3587 112.623 35.5746 111.654 37.4709C110.695 39.3672 109.336 40.8427 107.579 41.8974C105.821 42.9521 103.743 43.4794 101.346 43.4794ZM101.378 38.8452C102.678 38.8452 103.765 38.4883 104.638 37.7745C105.512 37.0501 106.162 36.0806 106.588 34.8661C107.025 33.6516 107.243 32.2987 107.243 30.8072C107.243 29.305 107.025 27.9467 106.588 26.7322C106.162 25.5071 105.512 24.5323 104.638 23.8079C103.765 23.0835 102.678 22.7212 101.378 22.7212C100.047 22.7212 98.9387 23.0835 98.0545 23.8079C97.1809 24.5323 96.5257 25.5071 96.0889 26.7322C95.6628 27.9467 95.4497 29.305 95.4497 30.8072C95.4497 32.2987 95.6628 33.6516 96.0889 34.8661C96.5257 36.0806 97.1809 37.0501 98.0545 37.7745C98.9387 38.4883 100.047 38.8452 101.378 38.8452Z" fill="#FF7A00"/>
<path d="M71.422 14.999C75.216 10.2194 88.1077 4.1631 95.0911 10.3663" stroke="#FF7A00" stroke-width="4"/>
</svg>
