<svg width="182" height="63" viewBox="0 0 182 63" fill="none" xmlns="http://www.w3.org/2000/svg">
<path d="M25.1527 20.7237C24.8864 19.8608 24.5188 19.0884 24.0501 18.4066C23.592 17.7141 23.038 17.1229 22.3881 16.6328C21.7489 16.1428 21.0139 15.7752 20.1829 15.5302C19.3519 15.2745 18.4464 15.1467 17.4663 15.1467C15.7085 15.1467 14.1424 15.5888 12.7681 16.473C11.3938 17.3572 10.3125 18.657 9.52415 20.3722C8.74645 22.0767 8.3576 24.1541 8.3576 26.6044C8.3576 29.076 8.74645 31.1694 9.52415 32.8846C10.3018 34.5998 11.3832 35.9048 12.7681 36.7997C14.1531 37.6839 15.7617 38.1261 17.5941 38.1261C19.256 38.1261 20.6942 37.8065 21.9087 37.1673C23.1339 36.5281 24.0767 35.6225 24.7372 34.4506C25.3977 33.2681 25.728 31.8832 25.728 30.2958L27.0703 30.5036H18.1854V25.8693H31.4648V29.8004C31.4648 32.6023 30.8683 35.0259 29.6751 37.0714C28.4819 39.1168 26.8413 40.6935 24.7532 41.8015C22.6651 42.8988 20.2681 43.4474 17.5621 43.4474C14.5472 43.4474 11.8999 42.771 9.62003 41.418C7.35085 40.0543 5.57706 38.1207 4.29865 35.6172C3.03089 33.103 2.39702 30.12 2.39702 26.6683C2.39702 24.0263 2.76989 21.6665 3.51562 19.5891C4.27202 17.5117 5.3267 15.7486 6.67969 14.2997C8.03267 12.8402 9.62003 11.7322 11.4418 10.9759C13.2635 10.2088 15.245 9.82528 17.3864 9.82528C19.1974 9.82528 20.886 10.0916 22.4521 10.6243C24.0181 11.1463 25.4084 11.892 26.6229 12.8615C27.848 13.831 28.8548 14.9815 29.6431 16.3132C30.4315 17.6449 30.9482 19.1151 31.1932 20.7237H25.1527ZM36.5227 43V10.2727H42.3075V22.5135H42.5472C42.8455 21.9169 43.2663 21.283 43.8096 20.6119C44.353 19.93 45.0881 19.3494 46.0149 18.87C46.9417 18.38 48.1243 18.1349 49.5625 18.1349C51.4588 18.1349 53.1687 18.6197 54.6921 19.5891C56.2262 20.5479 57.4407 21.9702 58.3356 23.8558C59.2411 25.7308 59.6939 28.032 59.6939 30.7592C59.6939 33.4545 59.2518 35.745 58.3675 37.6307C57.4833 39.5163 56.2795 40.9545 54.756 41.9453C53.2326 42.9361 51.5067 43.4315 49.5785 43.4315C48.1722 43.4315 47.0057 43.1971 46.0788 42.7283C45.152 42.2596 44.4062 41.695 43.8416 41.0344C43.2876 40.3633 42.8562 39.7294 42.5472 39.1328H42.2116V43H36.5227ZM42.1957 30.7273C42.1957 32.3146 42.4194 33.7049 42.8668 34.8981C43.3249 36.0913 43.9801 37.0234 44.8324 37.6946C45.6953 38.3551 46.7393 38.6854 47.9645 38.6854C49.2429 38.6854 50.3135 38.3445 51.1765 37.6626C52.0394 36.9702 52.6893 36.0273 53.126 34.8342C53.5735 33.6303 53.7972 32.2614 53.7972 30.7273C53.7972 29.2038 53.5788 27.8509 53.142 26.6683C52.7052 25.4858 52.0554 24.5589 51.1925 23.8878C50.3295 23.2166 49.2535 22.881 47.9645 22.881C46.7287 22.881 45.6793 23.206 44.8164 23.8558C43.9535 24.5057 43.2983 25.4165 42.8508 26.5884C42.414 27.7603 42.1957 29.1399 42.1957 30.7273ZM128.916 35.2976L128.9 28.3143H129.827L138.648 18.4545H145.408L134.557 30.5355H133.359L128.916 35.2976ZM123.643 43V10.2727H129.427V43H123.643ZM139.047 43L131.057 31.8299L134.957 27.755L145.967 43H139.047ZM152.447 52.2045C151.659 52.2045 150.929 52.1406 150.258 52.0128C149.597 51.8956 149.07 51.7571 148.676 51.5973L150.018 47.0909C150.86 47.3359 151.611 47.4531 152.271 47.4425C152.932 47.4318 153.512 47.2241 154.013 46.8192C154.524 46.4251 154.956 45.7646 155.307 44.8377L155.803 43.5114L146.902 18.4545H153.038L158.695 36.9915H158.951L164.624 18.4545H170.776L160.948 45.9723C160.49 47.272 159.883 48.3853 159.127 49.3121C158.37 50.2496 157.443 50.9634 156.346 51.4535C155.259 51.9542 153.96 52.2045 152.447 52.2045Z" fill="white"/>
<path d="M77.7934 43.4794C75.3964 43.4794 73.319 42.9521 71.5612 41.8974C69.8034 40.8427 68.4397 39.3672 67.4703 37.4709C66.5115 35.5746 66.0321 33.3587 66.0321 30.8232C66.0321 28.2876 66.5115 26.0664 67.4703 24.1594C68.4397 22.2525 69.8034 20.7717 71.5612 19.717C73.319 18.6623 75.3964 18.1349 77.7934 18.1349C80.1905 18.1349 82.2679 18.6623 84.0257 19.717C85.7835 20.7717 87.1418 22.2525 88.1006 24.1594C89.0701 26.0664 89.5548 28.2876 89.5548 30.8232C89.5548 33.3587 89.0701 35.5746 88.1006 37.4709C87.1418 39.3672 85.7835 40.8427 84.0257 41.8974C82.2679 42.9521 80.1905 43.4794 77.7934 43.4794ZM77.8254 38.8452C79.1251 38.8452 80.2118 38.4883 81.0853 37.7745C81.9589 37.0501 82.6088 36.0806 83.0349 34.8661C83.4717 33.6516 83.6901 32.2987 83.6901 30.8072C83.6901 29.305 83.4717 27.9467 83.0349 26.7322C82.6088 25.5071 81.9589 24.5323 81.0853 23.8079C80.2118 23.0835 79.1251 22.7212 77.8254 22.7212C76.4937 22.7212 75.3858 23.0835 74.5015 23.8079C73.628 24.5323 72.9728 25.5071 72.536 26.7322C72.1098 27.9467 71.8968 29.305 71.8968 30.8072C71.8968 32.2987 72.1098 33.6516 72.536 34.8661C72.9728 36.0806 73.628 37.0501 74.5015 37.7745C75.3858 38.4883 76.4937 38.8452 77.8254 38.8452ZM107.646 43.4794C105.249 43.4794 103.172 42.9521 101.414 41.8974C99.6563 40.8427 98.2927 39.3672 97.3232 37.4709C96.3644 35.5746 95.885 33.3587 95.885 30.8232C95.885 28.2876 96.3644 26.0664 97.3232 24.1594C98.2927 22.2525 99.6563 20.7717 101.414 19.717C103.172 18.6623 105.249 18.1349 107.646 18.1349C110.043 18.1349 112.121 18.6623 113.879 19.717C115.636 20.7717 116.995 22.2525 117.954 24.1594C118.923 26.0664 119.408 28.2876 119.408 30.8232C119.408 33.3587 118.923 35.5746 117.954 37.4709C116.995 39.3672 115.636 40.8427 113.879 41.8974C112.121 42.9521 110.043 43.4794 107.646 43.4794ZM107.678 38.8452C108.978 38.8452 110.065 38.4883 110.938 37.7745C111.812 37.0501 112.462 36.0806 112.888 34.8661C113.325 33.6516 113.543 32.2987 113.543 30.8072C113.543 29.305 113.325 27.9467 112.888 26.7322C112.462 25.5071 111.812 24.5323 110.938 23.8079C110.065 23.0835 108.978 22.7212 107.678 22.7212C106.347 22.7212 105.239 23.0835 104.354 23.8079C103.481 24.5323 102.826 25.5071 102.389 26.7322C101.963 27.9467 101.75 29.305 101.75 30.8072C101.75 32.2987 101.963 33.6516 102.389 34.8661C102.826 36.0806 103.481 37.0501 104.354 37.7745C105.239 38.4883 106.347 38.8452 107.678 38.8452Z" fill="#FF7A00"/>
<path d="M71.422 14.999C75.216 10.2194 88.1077 4.1631 95.0911 10.3663" stroke="#FF7A00" stroke-width="4"/>
</svg>
